<svg xmlns="http://www.w3.org/2000/svg" viewBox="0 0 61.8 61.8" id="avatar"><g data-name="Layer 2"><g data-name="—ÎÓÈ 1"><circle cx="30.9" cy="30.9" r="30.9" fill="#ffc200"></circle><path fill="#677079" fill-rule="evenodd" d="M52.587 52.908a30.895 30.895 0 0 1-43.667-.291 9.206 9.206 0 0 1 4.037-4.832 19.799 19.799 0 0 1 4.075-2.322c-2.198-7.553 3.777-11.266 6.063-12.335 0 3.487 3.265 1.173 7.317 1.217 3.336.037 9.933 3.395 9.933-1.035 3.67 1.086 7.67 8.08 4.917 12.377a17.604 17.604 0 0 1 3.181 2.002 10.192 10.192 0 0 1 4.144 5.22z"></path><path fill="#f9dca4" fill-rule="evenodd" d="m24.032 38.68 14.92.09v3.437l-.007.053a2.784 2.784 0 0 1-.07.462l-.05.341-.03.071c-.966 5.074-5.193 7.035-7.803 8.401-2.75-1.498-6.638-4.197-6.947-8.972l-.013-.059v-.2a8.897 8.897 0 0 1-.004-.207c0 .036.003.07.004.106z"></path><path fill-rule="evenodd" d="M38.953 38.617v4.005a7.167 7.167 0 0 1-.095 1.108 6.01 6.01 0 0 1-.38 1.321c-5.184 3.915-13.444.704-14.763-5.983z" opacity=".11"></path><path fill="#f9dca4" fill-rule="evenodd" d="M18.104 25.235c-4.94 1.27-.74 7.29 2.367 7.264a19.805 19.805 0 0 1-2.367-7.264zM43.837 25.235c4.94 1.27.74 7.29-2.368 7.263a19.8 19.8 0 0 0 2.368-7.263z"></path><path fill="#ffe8be" fill-rule="evenodd" d="M30.733 11.361c20.523 0 12.525 32.446 0 32.446-11.83 0-20.523-32.446 0-32.446z"></path><path fill="#8a5c42" fill-rule="evenodd" d="M21.047 22.105a1.738 1.738 0 0 1-.414 2.676c-1.45 1.193-1.503 5.353-1.503 5.353-.56-.556-.547-3.534-1.761-5.255s-2.032-13.763 4.757-18.142a4.266 4.266 0 0 0-.933 3.6s4.716-6.763 12.54-6.568a5.029 5.029 0 0 0-2.487 3.26s6.84-2.822 12.54.535a13.576 13.576 0 0 0-4.145 1.947c2.768.076 5.443.59 7.46 2.384a3.412 3.412 0 0 0-2.176 4.38c.856 3.503.936 6.762.107 8.514-.829 1.752-1.22.621-1.739 4.295a1.609 1.609 0 0 1-.77 1.214c-.02.266.382-3.756-.655-4.827-1.036-1.07-.385-2.385.029-3.163 2.89-5.427-5.765-7.886-10.496-7.88-4.103.005-14 1.87-10.354 7.677z"></path><path fill="#434955" fill-rule="evenodd" d="M19.79 49.162c.03.038 10.418 13.483 22.63-.2-1.475 4.052-7.837 7.27-11.476 7.26-6.95-.02-10.796-5.6-11.154-7.06z"></path><path fill="#e6e6e6" fill-rule="evenodd" d="M36.336 61.323c-.41.072-.822.135-1.237.192v-8.937a.576.576 0 0 1 .618-.516.576.576 0 0 1 .619.516v8.745zm-9.82.166q-.622-.089-1.237-.2v-8.711a.576.576 0 0 1 .618-.516.576.576 0 0 1 .62.516z"></path></g></g></svg>
<svg xmlns="http://www.w3.org/2000/svg" viewBox="0 0 61.8 61.8" id="avatar"><g data-name="Layer 2"><g data-name="—ÎÓÈ 1"><circle cx="30.9" cy="30.9" r="30.9" fill="#58b0e0"></circle><path fill="#f9dca4" fill-rule="evenodd" d="m23.255 38.68 15.907.121v12.918l-15.907-.121V38.68z"></path><path fill="#e6e6e6" fill-rule="evenodd" d="M43.971 58.905a30.967 30.967 0 0 1-25.843.14V48.417H43.97z"></path><path fill="#e9573e" fill-rule="evenodd" d="M33.403 61.7q-1.238.099-2.503.1-.955 0-1.895-.057l1.03-8.988h2.41z"></path><path fill="#677079" fill-rule="evenodd" d="M25.657 61.332A34.072 34.072 0 0 1 15.9 57.92a31.033 31.033 0 0 1-7.857-6.225l1.284-3.1 13.925-6.212c0 5.212 1.711 13.482 2.405 18.95z"></path><path fill-rule="evenodd" d="M39.165 38.759v3.231c-4.732 5.527-13.773 4.745-15.8-3.412z" opacity=".11"></path><path fill="#ffe8be" fill-rule="evenodd" d="M31.129 8.432c21.281 0 12.987 35.266 0 35.266-12.267 0-21.281-35.266 0-35.266z"></path><path fill="#f9dca4" fill-rule="evenodd" d="M18.365 24.046c-3.07 1.339-.46 7.686 1.472 7.658a31.972 31.972 0 0 1-1.472-7.659zM44.14 24.045c3.07 1.339.46 7.687-1.471 7.658a31.993 31.993 0 0 0 1.471-7.658z"></path><path fill="#464449" fill-rule="evenodd" d="M21.931 14.328c-3.334 3.458-2.161 13.03-2.161 13.03l-1.05-.495c-6.554-25.394 31.634-25.395 25.043 0l-1.05.495s1.174-9.572-2.16-13.03c-4.119 3.995-14.526 3.974-18.622 0z"></path><path fill="#677079" fill-rule="evenodd" d="M36.767 61.243a30.863 30.863 0 0 0 17.408-10.018l-1.09-2.631-13.924-6.212c0 5.212-1.7 13.393-2.394 18.861z"></path><path fill="#fff" fill-rule="evenodd" d="m39.162 41.98-7.926 6.465 6.573 5.913s1.752-9.704 1.353-12.378z"></path><path fill="#fff" fill-rule="evenodd" d="m23.253 41.98 7.989 6.465-6.645 5.913s-1.746-9.704-1.344-12.378z"></path><path fill="#e9573e" fill-rule="evenodd" d="m28.109 51.227 3.137-2.818 3.137 2.818-3.137 2.817-3.137-2.817z"></path><path fill="#434955" fill-rule="evenodd" d="M25.767 61.373a30.815 30.815 0 0 1-3.779-.88 2.652 2.652 0 0 1-.114-.093l-3.535-6.39 4.541-3.26h-4.752l1.017-6.851 4.11-2.599c.178 7.37 1.759 15.656 2.512 20.073zM36.645 61.266c.588-.098 1.17-.234 1.747-.384a56.83 56.83 0 0 0 2.034-.579l.134-.043 3.511-6.315-4.541-3.242h4.752l-1.017-6.817-4.11-2.586c-.178 7.332-1.758 15.571-2.51 19.966z"></path></g></g></svg>
<svg xmlns="http://www.w3.org/2000/svg" viewBox="0 0 61.8 61.8" id="avatar"><g data-name="Layer 2"><g data-name="—ÎÓÈ 1"><path fill="#ffe8be" fill-rule="evenodd" d="M31.129 8.432c21.281 0 12.987 35.266 0 35.266-12.266 0-21.281-35.266 0-35.266z"></path><circle cx="30.9" cy="30.9" r="30.9" fill="#58b0e0"></circle><path fill="#60350a" fill-rule="evenodd" d="M45.487 19.987l-29.173.175s1.048 16.148-2.619 21.21h35.701c-.92-1.35-3.353-1.785-3.909-21.385z"></path><path fill="#d5e1ed" fill-rule="evenodd" d="M18.135 45.599l7.206-3.187 11.55-.3 7.42 3.897-5.357 11.215-7.613 4.088-7.875-4.35-5.331-11.363z"></path><path fill="#f9dca4" fill-rule="evenodd" d="M24.744 38.68l12.931.084v8.949l-12.931-.085V38.68z"></path><path fill-rule="evenodd" d="M37.677 38.778v3.58a9.168 9.168 0 0 1-.04 1.226 6.898 6.898 0 0 1-.313 1.327c-4.37 4.165-11.379.78-12.49-6.333z" opacity=".11"></path><path fill="#434955" fill-rule="evenodd" d="M52.797 52.701a30.896 30.896 0 0 1-44.08-.293l1.221-3.098 9.103-4.122c3.262 5.98 6.81 11.524 12.317 15.455A45.397 45.397 0 0 0 43.2 45.483l8.144 3.853z"></path><path fill="#f9dca4" fill-rule="evenodd" d="M19.11 24.183c-2.958 1.29-.442 7.41 1.42 7.383a30.842 30.842 0 01-1.42-7.383zM43.507 24.182c2.96 1.292.443 7.411-1.419 7.384a30.832 30.832 0 001.419-7.384z"></path><path fill="#ffe8be" fill-rule="evenodd" d="M31.114 8.666c8.722 0 12.377 6.2 12.601 13.367.307 9.81-5.675 21.43-12.6 21.43-6.56 0-12.706-12.018-12.333-21.928.26-6.953 3.814-12.869 12.332-12.869z"></path><path fill="#464449" fill-rule="evenodd" d="M33.399 24.983a7.536 7.536 0 0 1 5.223-.993h.005c5.154.63 5.234 2.232 4.733 2.601a2.885 2.885 0 0 0-.785 1.022 6.566 6.566 0 0 1-1.052 2.922 5.175 5.175 0 0 1-3.464 2.312c-.168.027-.34.048-.516.058a4.345 4.345 0 0 1-3.65-1.554 8.33 8.33 0 0 1-1.478-2.53v.003s-.797-1.636-2.072-.114a8.446 8.446 0 0 1-1.52 2.64 4.347 4.347 0 0 1-3.651 1.555 5.242 5.242 0 0 1-.516-.058 5.176 5.176 0 0 1-3.464-2.312 6.568 6.568 0 0 1-1.052-2.921 2.75 2.75 0 0 0-.77-1.023c-.5-.37-.425-1.973 4.729-2.603h.002a7.545 7.545 0 0 1 5.24 1.01l-.001-.001.003.002.215.131a3.93 3.93 0 0 0 3.842-.148l-.001.001zm-4.672.638a6.638 6.638 0 0 0-6.157-.253c-1.511.686-1.972 1.17-1.386 3.163a5.617 5.617 0 0 0 .712 1.532 4.204 4.204 0 0 0 3.326 1.995 3.536 3.536 0 0 0 2.966-1.272 7.597 7.597 0 0 0 1.36-2.37c.679-1.78.862-1.863-.82-2.795zm10.947-.45a6.727 6.727 0 0 0-5.886.565c-1.538.911-1.258 1.063-.578 2.79a7.476 7.476 0 0 0 1.316 2.26 3.536 3.536 0 0 0 2.967 1.272 4.228 4.228 0 0 0 .43-.048 4.34 4.34 0 0 0 2.896-1.947 5.593 5.593 0 0 0 .684-1.44c.702-2.25.076-2.751-1.828-3.451z"></path><path fill="#8a5c42" fill-rule="evenodd" d="M17.89 25.608c0-.638.984-.886 1.598 2.943a22.164 22.164 0 0 0 .956-4.813c1.162.225 2.278 2.848 1.927 5.148 3.166-.777 11.303-5.687 13.949-12.324 6.772 3.901 6.735 12.094 6.735 12.094s.358-1.9.558-3.516c.066-.538.293-.733.798-.213C48.073 17.343 42.3 5.75 31.297 5.57c-15.108-.246-17.03 16.114-13.406 20.039z"></path><path fill="#fff" fill-rule="evenodd" d="M24.765 42.431a14.125 14.125 0 0 0 6.463 5.236l-4.208 6.144-5.917-9.78z"></path><path fill="#fff" fill-rule="evenodd" d="M37.682 42.431a14.126 14.126 0 0 1-6.463 5.236l4.209 6.144 5.953-9.668z"></path><circle cx="31.223" cy="52.562" r=".839" fill="#434955"></circle><circle cx="31.223" cy="56.291" r=".839" fill="#434955"></circle><path fill="#464449" fill-rule="evenodd" d="M41.997 24.737c1.784.712 1.719 1.581 1.367 1.841a2.886 2.886 0 0 0-.785 1.022 6.618 6.618 0 0 1-.582 2.086v-4.949zm-21.469 4.479a6.619 6.619 0 0 1-.384-1.615 2.748 2.748 0 0 0-.77-1.023c-.337-.249-.413-1.06 1.154-1.754z"></path></g></g></svg>
<svg xmlns="http://www.w3.org/2000/svg" viewBox="0 0 61.8 61.8" id="avatar"><g data-name="Layer 2"><g data-name="—ÎÓÈ 1"><circle cx="30.9" cy="30.9" r="30.9" fill="#485a69"></circle><path fill="#f9dca4" fill-rule="evenodd" d="M23.242 38.592l15.92.209v12.918l-15.907-.121-.013-13.006z"></path><path fill="#d5e1ed" fill-rule="evenodd" d="M53.478 51.993A30.814 30.814 0 0 1 30.9 61.8a31.225 31.225 0 0 1-3.837-.237A30.699 30.699 0 0 1 15.9 57.919a31.033 31.033 0 0 1-7.857-6.225l1.284-3.1 13.925-6.212c0 4.535 1.84 6.152 7.97 6.244 7.57.113 7.94-1.606 7.94-6.28l12.79 6.281z"></path><path fill-rule="evenodd" d="M39.165 38.778v3.404c-2.75 4.914-14 4.998-15.923-3.59z" opacity=".11"></path><path fill="#ffe8be" fill-rule="evenodd" d="M31.129 8.432c21.281 0 12.987 35.266 0 35.266-12.267 0-21.281-35.266 0-35.266z"></path><path fill="#f9dca4" fill-rule="evenodd" d="M18.365 24.045c-3.07 1.34-.46 7.687 1.472 7.658a31.973 31.973 0 01-1.472-7.658zM44.14 24.045c3.07 1.339.46 7.687-1.471 7.658a31.992 31.992 0 001.471-7.658z"></path><path fill="#ecbe6a" fill-rule="evenodd" d="M43.409 29.584s1.066-8.716-2.015-11.752c-1.34 3.528-7.502 4.733-7.502 4.733a16.62 16.62 0 0 0 3.215-2.947c-1.652.715-6.876 2.858-11.61 1.161a23.715 23.715 0 0 0 3.617-2.679s-4.287 2.322-8.44 1.742c-2.991 2.232-1.66 9.162-1.66 9.162C15 18.417 18.697 6.296 31.39 6.226c12.358-.069 16.17 11.847 12.018 23.358z"></path><path fill="#fff" fill-rule="evenodd" d="M23.255 42.179a17.39 17.39 0 0 0 7.958 6.446l-5.182 5.349L19.44 43.87z"></path><path fill="#fff" fill-rule="evenodd" d="M39.16 42.179a17.391 17.391 0 0 1-7.958 6.446l5.181 5.349 6.592-10.103z"></path><path fill="#3dbc93" fill-rule="evenodd" d="M33.366 61.7q-1.239.097-2.504.098-.954 0-1.895-.056l1.031-8.757h2.41z"></path><path fill="#3dbc93" fill-rule="evenodd" d="M28.472 51.456l2.737-2.817 2.736 2.817-2.736 2.817-2.737-2.817z"></path></g></g></svg>

